<?xml version="1.0" encoding="utf-8"?>
<!-- Generator: Adobe Illustrator 27.1.1, SVG Export Plug-In . SVG Version: 6.00 Build 0)  -->
<svg version="1.1" id="Layer_1" xmlns="http://www.w3.org/2000/svg" xmlns:xlink="http://www.w3.org/1999/xlink" x="0px" y="0px"
	 viewBox="0 0 512 512" style="enable-background:new 0 0 512 512;" xml:space="preserve">
<style type="text/css">
	.st0{display:none;}
	.st1{fill:#FFFFFF;}
</style>
<g id="Layer_1_00000129176591785534873300000004073080879810721936_" class="st0">
</g>
<g id="Layer_2_00000095296958601420234770000003741969714289095558_">
</g>
<g id="Layer_3">
	<path class="st1" d="M445.5,159.9h-51.3h-0.9l-0.6,0.6l-36.2,38.9l-28.8-28.8v-29.1v-0.8l-0.6-0.6l-40.4-40.4V57.6v-2h-2h-8h-2v2
		v38.6h-37.5V57.6v-2h-2h-8h-2v2v42.2L185,140.1l-0.6,0.6v0.8v29.1l-28.8,28.8l-36.2-38.9l-0.6-0.6h-0.9H66.7h-2v2v8v2h2h46.9
		l33.5,36l-9.5,9.5L137,218v0.8v54.3H66.7h-2v2v8v2h2H137v45.4v0.4l0.1,0.3l0.3,0.7c0.2,0.4,3.7,9.5,10.8,21.6h-41.1h-0.9l-0.6,0.6
		L69.8,393l-1.4,1.5l1.5,1.4l5.9,5.4l1.5,1.4l1.4-1.5l32.9-35.7h44.5c2,2.9,4.1,5.7,6.3,8.3v37.8l55,55h77.7l55-55v-37.8
		c2.1-2.7,4.2-5.4,6.3-8.3h44.5l32.9,35.7l1.4,1.5l1.5-1.4l5.9-5.4l1.5-1.4l-1.4-1.5l-35.9-38.9l-0.6-0.6h-1.1H364
		c7.1-12.1,10.7-21.2,10.8-21.6l0.3-0.7l0.1-0.3v-0.4v-45.4h70.3h2v-2v-8v-2h-2h-70.3v-54.3V218l-0.6-0.6l-9.5-9.5l33.5-36h46.9h2
		v-2v-8v-2L445.5,159.9L445.5,159.9z M196.4,145.6l37.4-37.4h44.5l37.4,37.4V167H196.4V145.6z M308,368.3v9v6h-6h-35.4v35.4v6h-6h-9
		h-6v-6v-35.4h-35.4h-6v-6v-9v-6h6h35.4v-35.4v-6h6h9h6v6v35.4H302h6V368.3z M363.2,328.6c-1.3,3.2-5.7,13-13.2,24.7V334l-55-55
		h-77.7l-55,55v19.4c-7.6-11.7-12-21.7-13.2-24.7V222.9L193,179h126.4l43.9,43.9L363.2,328.6L363.2,328.6z"/>
</g>
</svg>
